<svg id="visual" viewBox="0 0 1024 75" width="1024" height="75" xmlns="http://www.w3.org/2000/svg" xmlns:xlink="http://www.w3.org/1999/xlink" version="1.1"><path d="M0 48L7.5 41.8C15 35.7 30 23.3 44.8 22.2C59.7 21 74.3 31 89.2 37C104 43 119 45 133.8 44C148.7 43 163.3 39 178.2 38.7C193 38.3 208 41.7 222.8 40C237.7 38.3 252.3 31.7 267.2 29.3C282 27 297 29 311.8 27C326.7 25 341.3 19 356.2 15.2C371 11.3 386 9.7 400.8 15.2C415.7 20.7 430.3 33.3 445.2 34.7C460 36 475 26 489.8 29.2C504.7 32.3 519.3 48.7 534.2 56.5C549 64.3 564 63.7 578.8 55.8C593.7 48 608.3 33 623.2 28.3C638 23.7 653 29.3 667.8 35.2C682.7 41 697.3 47 712.2 49C727 51 742 49 756.8 49.2C771.7 49.3 786.3 51.7 801.2 47.5C816 43.3 831 32.7 845.8 28.7C860.7 24.7 875.3 27.3 890.2 30.8C905 34.3 920 38.7 934.8 37.7C949.7 36.7 964.3 30.3 979.2 28.3C994 26.3 1009 28.7 1016.5 29.8L1024 31L1024 76L1016.5 76C1009 76 994 76 979.2 76C964.3 76 949.7 76 934.8 76C920 76 905 76 890.2 76C875.3 76 860.7 76 845.8 76C831 76 816 76 801.2 76C786.3 76 771.7 76 756.8 76C742 76 727 76 712.2 76C697.3 76 682.7 76 667.8 76C653 76 638 76 623.2 76C608.3 76 593.7 76 578.8 76C564 76 549 76 534.2 76C519.3 76 504.7 76 489.8 76C475 76 460 76 445.2 76C430.3 76 415.7 76 400.8 76C386 76 371 76 356.2 76C341.3 76 326.7 76 311.8 76C297 76 282 76 267.2 76C252.3 76 237.7 76 222.8 76C208 76 193 76 178.2 76C163.3 76 148.7 76 133.8 76C119 76 104 76 89.2 76C74.3 76 59.7 76 44.8 76C30 76 15 76 7.5 76L0 76Z" fill="#121212" stroke-linecap="round" stroke-linejoin="miter"></path></svg>