<svg id="visual" viewBox="0 0 4096 150" width="4096" height="150" xmlns="http://www.w3.org/2000/svg" xmlns:xlink="http://www.w3.org/1999/xlink" version="1.1"><path d="M0 66L26.3 75.7C52.7 85.3 105.3 104.7 157.8 100.8C210.3 97 262.7 70 315.2 66.5C367.7 63 420.3 83 472.8 86.5C525.3 90 577.7 77 630.2 75.5C682.7 74 735.3 84 787.8 93.7C840.3 103.3 892.7 112.7 945.2 109.2C997.7 105.7 1050.3 89.3 1102.8 75.2C1155.3 61 1207.7 49 1260.2 57.2C1312.7 65.3 1365.3 93.7 1417.8 110.3C1470.3 127 1522.7 132 1575.2 114C1627.7 96 1680.3 55 1732.8 52C1785.3 49 1837.7 84 1890.2 90.8C1942.7 97.7 1995.3 76.3 2048 76C2100.7 75.7 2153.3 96.3 2205.8 99.2C2258.3 102 2310.7 87 2363.2 90.7C2415.7 94.3 2468.3 116.7 2520.8 115.7C2573.3 114.7 2625.7 90.3 2678.2 84.7C2730.7 79 2783.3 92 2835.8 91.3C2888.3 90.7 2940.7 76.3 2993.2 65.7C3045.7 55 3098.3 48 3150.8 47.8C3203.3 47.7 3255.7 54.3 3308.2 53.2C3360.7 52 3413.3 43 3465.8 35.2C3518.3 27.3 3570.7 20.7 3623.2 36.3C3675.7 52 3728.3 90 3780.8 89.2C3833.3 88.3 3885.7 48.7 3938.2 48.5C3990.7 48.3 4043.3 87.7 4069.7 107.3L4096 127L4096 0L4069.7 0C4043.3 0 3990.7 0 3938.2 0C3885.7 0 3833.3 0 3780.8 0C3728.3 0 3675.7 0 3623.2 0C3570.7 0 3518.3 0 3465.8 0C3413.3 0 3360.7 0 3308.2 0C3255.7 0 3203.3 0 3150.8 0C3098.3 0 3045.7 0 2993.2 0C2940.7 0 2888.3 0 2835.8 0C2783.3 0 2730.7 0 2678.2 0C2625.7 0 2573.3 0 2520.8 0C2468.3 0 2415.7 0 2363.2 0C2310.7 0 2258.3 0 2205.8 0C2153.3 0 2100.7 0 2048 0C1995.3 0 1942.7 0 1890.2 0C1837.7 0 1785.3 0 1732.8 0C1680.3 0 1627.7 0 1575.2 0C1522.7 0 1470.3 0 1417.8 0C1365.3 0 1312.7 0 1260.2 0C1207.7 0 1155.3 0 1102.8 0C1050.3 0 997.7 0 945.2 0C892.7 0 840.3 0 787.8 0C735.3 0 682.7 0 630.2 0C577.7 0 525.3 0 472.8 0C420.3 0 367.7 0 315.2 0C262.7 0 210.3 0 157.8 0C105.3 0 52.7 0 26.3 0L0 0Z" fill="#121212" stroke-linecap="round" stroke-linejoin="miter"></path></svg>